PathFileType	4	(X/Y/Z)	/Users/itak/Documents/Research/Walk-IL/dataset/trc/00538_00009.trc
DataRate	CameraRate	NumFrames	NumMarkers	Units	OrigDataRate	OrigDataStartFrame	OrigNumFrames
100.000000	100.000000	4	55	mm	100.000000	338	676
Frame#	Time	RPSI			LPSI			L3			STRN			T10			C7			CLAV			RBAK			LBAK			LSHO			LUPA			LAEL			LAOL			LWTS			LWPS			LFRA			LIFD			LHPS			LHTS			RSHO			RUPA			RAEL			RAOL			RWTS			RWPS			RFRA			RIFD			RHTS			RHPS			RBHD			LFHD			RFHD			LBHD			LHIP			RHIP			RASI			LASI			LKNE			LTHI			LANK			LTIP			LTOE			LMT1			LMT5			LHEE			RKNE			RTHI			RANK			RTIP			RTOE			RMT5			RHEE			RMT1			*53			*54			
		X1	Y1	Z1	X2	Y2	Z2	X3	Y3	Z3	X4	Y4	Z4	X5	Y5	Z5	X6	Y6	Z6	X7	Y7	Z7	X8	Y8	Z8	X9	Y9	Z9	X10	Y10	Z10	X11	Y11	Z11	X12	Y12	Z12	X13	Y13	Z13	X14	Y14	Z14	X15	Y15	Z15	X16	Y16	Z16	X17	Y17	Z17	X18	Y18	Z18	X19	Y19	Z19	X20	Y20	Z20	X21	Y21	Z21	X22	Y22	Z22	X23	Y23	Z23	X24	Y24	Z24	X25	Y25	Z25	X26	Y26	Z26	X27	Y27	Z27	X28	Y28	Z28	X29	Y29	Z29	X30	Y30	Z30	X31	Y31	Z31	X32	Y32	Z32	X33	Y33	Z33	X34	Y34	Z34	X35	Y35	Z35	X36	Y36	Z36	X37	Y37	Z37	X38	Y38	Z38	X39	Y39	Z39	X40	Y40	Z40	X41	Y41	Z41	X42	Y42	Z42	X43	Y43	Z43	X44	Y44	Z44	X45	Y45	Z45	X46	Y46	Z46	X47	Y47	Z47	X48	Y48	Z48	X49	Y49	Z49	X50	Y50	Z50	X51	Y51	Z51	X52	Y52	Z52	X53	Y53	Z53	X54	Y54	Z54	X55	Y55	Z55	

339	3.38	24.14770317077637	1011.24365234375	504.6677856445312	24.42728424072266	1013.918212890625	371.441162109375	32.72577285766602	1108.695434570312	438.5413208007812	269.1352844238281	1284.22314453125	425.1707458496094	24.27121925354004	1233.59033203125	442.4300842285156	85.98164367675781	1504.276000976562	455.6970520019531	254.2058868408203	1395.75048828125	427.5584106445312	18.7955322265625	1381.575561523438	548.5889892578125	41.94816970825195	1454.490478515625	366.7748718261719	134.8842620849609	1475.78466796875	276.7504272460938	109.2320098876953	1351.672973632812	196.7424011230469	106.7991561889648	1130.245239257812	168.0397796630859	24.63827514648438	1128.854370117188	227.7518157958984	182.6644744873047	879.1840209960938	203.7172088623047	128.4866638183594	861.6633911132812	136.8813323974609	121.9166412353516	1042.164794921875	159.1837158203125	163.6926422119141	709.1566162109375	197.7587738037109	132.3147430419922	801.0221557617188	143.8610534667969	189.1214141845703	800.941650390625	181.5543212890625	160.8842163085938	1458.5517578125	603.7401123046875	146.6894836425781	1393.912475585938	672.059326171875	133.5416870117188	1105.142456054688	719.0171508789062	74.96786499023438	1090.489501953125	696.3139038085938	252.2562103271484	878.2501831054688	676.4943237304688	212.6781311035156	861.328125	746.2530517578125	140.937255859375	1049.84375	727.3053588867188	255.4319610595703	704.9515991210938	682.7722778320312	277.7813415527344	785.7667236328125	691.4213256835938	226.1454467773438	786.9609985351562	745.1327514648438	171.8839874267578	1678.958740234375	513.739501953125	324.4830017089844	1697.416748046875	373.8699645996094	312.8122863769531	1694.093872070312	517.6962890625	193.4651184082031	1681.519165039062	349.8786315917969	157.0392913818359	936.5333862304688	243.3878021240234	138.5634460449219	932.1237182617188	628.8973999023438	230.1853485107422	957.0506591796875	574.1826171875	233.4647979736328	962.0090942382812	297.3215637207031	276.4878540039062	504.4349975585938	315.7736511230469	237.5379791259766	664.4371948242188	268.0646362304688	270.83154296875	31.75089263916016	338.0442810058594	258.48828125	252.600830078125	320.61474609375	478.3035583496094	45.47690200805664	405.222900390625	403.9456787109375	48.8149528503418	436.6894226074219	393.0263061523438	36.33506011962891	330.3139038085938	200.0184326171875	37.0451545715332	389.3590393066406	73.77510070800781	495.3578491210938	572.0673217773438	183.7954864501953	774.9708251953125	621.63671875	-193.0479583740234	88.87374877929688	544.4481811523438	16.83820533752441	359.4025268554688	556.9950561523438	5.643679618835449	37.45385360717773	478.8406677246094	-72.36209106445312	38.68408966064453	548.800537109375	-248.1472778320312	115.4483184814453	492.8209838867188	-53.85192108154297	54.91475296020508	446.5198669433594	nan	nan	nan	nan	nan	nan	
340	3.39	31.02289581298828	1011.760925292969	503.2680358886719	31.35865592956543	1014.593566894531	370.0599060058594	39.42824172973633	1109.065795898438	437.1073608398438	275.4421081542969	1285.12548828125	423.8487854003906	30.7178897857666	1234.00390625	441.0431213378906	91.78672790527344	1504.818725585938	454.4065551757812	260.266845703125	1396.662963867188	426.2534790039062	24.94659042358398	1381.954345703125	547.2822265625	47.85921478271484	1454.894409179688	365.4776611328125	140.6971893310547	1476.450073242188	275.4748840332031	115.4459381103516	1352.32861328125	195.3464660644531	114.3840484619141	1130.733154296875	166.5222930908203	31.96519470214844	1128.880004882812	225.8871612548828	193.1609344482422	880.9486083984375	202.6482696533203	139.3456726074219	862.583740234375	135.8300018310547	130.5491027832031	1043.017822265625	157.7427978515625	176.7838745117188	710.7247314453125	196.8677215576172	144.0386199951172	802.0245361328125	142.8696136474609	200.8572540283203	802.8324584960938	180.5773773193359	166.8220825195312	1459.27392578125	602.41748046875	152.7350463867188	1394.725952148438	670.7442016601562	139.3866271972656	1106.064575195312	718.1278076171875	80.76162719726562	1091.461059570312	695.4888305664062	257.8108825683594	878.9397583007812	675.761962890625	218.2013092041016	862.1890258789062	745.6516723632812	146.7293395996094	1050.783813476562	726.485595703125	260.5462341308594	705.6398315429688	682.350341796875	283.0560607910156	786.3945922851562	690.8865356445312	231.5853271484375	787.7727661132812	744.6141967773438	177.6493072509766	1679.8046875	512.4295654296875	330.1144714355469	1698.234375	372.3896789550781	318.6115417480469	1694.97802734375	516.24462890625	199.0920104980469	1682.317504882812	348.552001953125	163.7212524414062	937.1270751953125	241.8625183105469	145.7840270996094	932.642822265625	627.2105102539062	237.0640716552734	957.7523803710938	572.7561645507812	240.2327880859375	962.5833740234375	295.9013671875	280.0296325683594	504.2334899902344	315.1554870605469	242.1165313720703	664.436279296875	267.347412109375	270.894775390625	31.85734939575195	338.1632080078125	260.2986145019531	252.5422821044922	320.4757690429688	478.4703369140625	44.84077453613281	405.5975341796875	404.0848388671875	48.42787933349609	436.9543762207031	393.0767211914062	36.361328125	330.4040222167969	200.1068115234375	37.10648727416992	389.4429016113281	83.04650115966797	495.4487609863281	572.377197265625	191.191162109375	775.7752685546875	620.43359375	-190.462158203125	92.61601257324219	545.3604125976562	24.18188858032227	360.0242004394531	557.7589111328125	5.923648357391357	37.3712043762207	478.9317321777344	-71.23854827880859	39.05371475219727	548.9406127929688	-244.8836669921875	120.912467956543	493.8269348144531	-52.84550094604492	55.75701904296875	446.7998657226562	nan	nan	nan	nan	nan	nan	
341	3.4	37.84260559082031	1012.213012695312	501.9267578125	38.24028015136719	1015.225646972656	368.7228698730469	46.08426666259766	1109.363525390625	435.7152099609375	281.7205810546875	1285.973510742188	422.542236328125	37.17031860351562	1234.348022460938	439.6399230957031	97.53345489501953	1505.302001953125	453.0933837890625	266.2853393554688	1397.5185546875	424.9676818847656	31.02092552185059	1382.260864257812	545.9241943359375	53.74501419067383	1455.246337890625	364.1513366699219	146.4977569580078	1477.058227539062	274.1965637207031	121.6854248046875	1352.934326171875	193.93408203125	122.0395584106445	1131.17919921875	165.0139923095703	39.33791351318359	1128.847045898438	224.0177612304688	203.7232666015625	882.7217407226562	201.5608673095703	150.2516326904297	863.5001220703125	134.7838592529297	139.2392425537109	1043.839477539062	156.2650299072266	189.9952850341797	712.3367309570312	195.9546813964844	155.8794555664062	803.0404052734375	141.8529815673828	212.6851806640625	804.7615966796875	179.5791015625	172.6709594726562	1459.938354492188	601.0938720703125	158.6741180419922	1395.458618164062	669.4201049804688	145.2001800537109	1106.91943359375	717.2030029296875	86.58048248291016	1092.316040039062	694.5769653320312	263.4842224121094	879.59765625	675.0587768554688	223.8256072998047	863.01220703125	745.0557250976562	152.5423278808594	1051.647583007812	725.6240844726562	265.8799743652344	706.3095703125	681.97607421875	288.5012512207031	787.0125122070312	690.39794921875	237.1753387451172	788.5568237304688	744.10791015625	183.3248291015625	1680.584716796875	511.1407165527344	335.6837463378906	1699.047973632812	370.9478149414062	324.3495178222656	1695.83154296875	514.8413696289062	204.6503448486328	1683.072509765625	347.25146484375	170.3088226318359	937.68994140625	240.3505096435547	153.0372619628906	933.0789184570312	625.5010986328125	243.9106903076172	958.3955078125	571.3147583007812	246.9281158447266	963.1088256835938	294.4794311523438	283.5527038574219	504.03369140625	314.5514221191406	246.6876983642578	664.43603515625	266.76513671875	270.9346923828125	31.95356750488281	338.2719116210938	262.0807800292969	252.4864044189453	320.3117370605469	478.6025085449219	44.31341934204102	405.9704895019531	404.2095947265625	48.10123062133789	437.1817932128906	393.1194152832031	36.39777755737305	330.4994812011719	200.197265625	37.1685791015625	389.5047302246094	92.65391540527344	495.3875427246094	572.87109375	198.5547790527344	776.5213012695312	619.2154541015625	-187.6696624755859	96.53682708740234	546.2915649414062	31.81607627868652	360.56591796875	558.6499633789062	6.223369598388672	37.30148696899414	479.0434265136719	-70.01973724365234	39.48949432373047	549.0963134765625	-241.3253021240234	126.6011428833008	494.8801574707031	-51.7816162109375	56.63661193847656	447.1177978515625	nan	nan	nan	nan	nan	nan	
342	3.41	44.59272766113281	1012.598876953125	500.6484680175781	45.05504989624023	1015.811218261719	367.4354553222656	52.67409515380859	1109.606079101562	434.3778991699219	287.9610290527344	1286.765014648438	421.2563781738281	43.61351013183594	1234.628662109375	438.2288513183594	103.2212829589844	1505.72900390625	451.7584838867188	272.2581787109375	1398.3134765625	423.704833984375	37.01233291625977	1382.505737304688	544.5226440429688	59.59746551513672	1455.552490234375	362.7973022460938	152.2920227050781	1477.610107421875	272.91796875	127.9671783447266	1353.489501953125	192.510009765625	129.7951049804688	1131.603149414062	163.5191040039062	46.76100158691406	1128.765869140625	222.1170501708984	214.3377075195312	884.4880981445312	200.4608459472656	161.1923522949219	864.405029296875	133.7426910400391	147.9938507080078	1044.625244140625	154.7635650634766	203.2705383300781	713.9790649414062	195.024169921875	167.8121185302734	804.065185546875	140.8096923828125	224.5682830810547	806.7100830078125	178.5686187744141	178.4304046630859	1460.551635742188	599.7734985351562	164.5018615722656	1396.1142578125	668.094482421875	150.9721527099609	1107.707397460938	716.2374267578125	92.40645599365234	1093.057983398438	693.5682983398438	269.2741394042969	880.2359619140625	674.3945922851562	229.5411987304688	863.8042602539062	744.46630859375	158.3576507568359	1052.439208984375	724.7177124023438	271.4502868652344	706.9717407226562	681.6473388671875	294.1334228515625	787.6382446289062	689.950927734375	242.9032440185547	789.3211669921875	743.6154174804688	188.9089202880859	1681.297119140625	509.8721923828125	341.1947937011719	1699.853881835938	369.5477905273438	330.0164794921875	1696.650146484375	513.4900512695312	210.1460418701172	1683.778442382812	345.9761657714844	176.800537109375	938.2334594726562	238.8545989990234	160.2615051269531	933.4359741210938	623.80224609375	250.7144317626953	958.9808959960938	569.8556518554688	253.53466796875	963.5958251953125	293.0540161132812	287.0834350585938	503.8456726074219	313.9485778808594	251.2931976318359	664.4569702148438	266.3101806640625	270.95751953125	32.03510665893555	338.3631591796875	263.839599609375	252.4357452392578	320.1184692382812	478.7023620605469	43.873291015625	406.3372497558594	404.3194885253906	47.82928466796875	437.3698120117188	393.1589965820312	36.44002151489258	330.590576171875	200.2870941162109	37.2297248840332	389.53955078125	102.5967025756836	495.1807556152344	573.5458374023438	205.8755035400391	777.20947265625	617.9796752929688	-184.6645812988281	100.6690521240234	547.2670288085938	39.76900482177734	361.0304260253906	559.6639404296875	6.559117317199707	37.24520492553711	479.1771545410156	-68.69816589355469	40.02265548706055	549.2858276367188	-237.4502868652344	132.5260620117188	496.0032348632812	-50.6405143737793	57.59292602539062	447.4801025390625	nan	nan	nan	nan	nan	nan	
